<svg width="37" height="37" viewBox="0 0 37 37" fill="none" xmlns="http://www.w3.org/2000/svg">
<path d="M21.9688 27.75H4.625L4.62153 10.2976L17.8421 19.4504C18.0354 19.5842 18.2649 19.6559 18.5 19.6559C18.7351 19.6559 18.9646 19.5842 19.1579 19.4504L32.375 10.3022V20.8125H34.6875V9.25C34.6866 8.63697 34.4426 8.04931 34.0092 7.61583C33.5757 7.18235 32.988 6.93842 32.375 6.9375H4.625C4.01187 6.93811 3.42404 7.18195 2.99049 7.61549C2.55695 8.04904 2.31311 8.63687 2.3125 9.25V27.75C2.31342 28.363 2.55735 28.9507 2.99083 29.3842C3.42431 29.8177 4.01197 30.0616 4.625 30.0625H21.9688V27.75ZM29.8301 9.25L18.5 17.094L7.16991 9.25H29.8301Z" fill="#E28D40"/>
<path d="M30.0625 32.375C32.6168 32.375 34.6875 30.3043 34.6875 27.75C34.6875 25.1957 32.6168 23.125 30.0625 23.125C27.5082 23.125 25.4375 25.1957 25.4375 27.75C25.4375 30.3043 27.5082 32.375 30.0625 32.375Z" fill="#E28D40"/>
</svg>
