<svg width="34" height="34" viewBox="0 0 34 34" fill="none" xmlns="http://www.w3.org/2000/svg">
<g clip-path="url(#clip0)">
<path fill-rule="evenodd" clip-rule="evenodd" d="M24.6713 20.3746C24.2491 20.1635 22.1793 19.1463 21.794 19.0046C21.4087 18.8644 21.1282 18.795 20.8463 19.2171C20.5658 19.6365 19.7597 20.5856 19.5146 20.8661C19.2681 21.1481 19.023 21.1821 18.6023 20.9724C18.1815 20.7599 16.8243 20.3165 15.2164 18.8828C13.9655 17.7665 13.1198 16.3881 12.8747 15.9659C12.6296 15.5451 12.8478 15.3171 13.0588 15.1074C13.2487 14.919 13.4796 14.6158 13.6907 14.3707C13.9018 14.1242 13.9712 13.9486 14.1114 13.6666C14.2531 13.3861 14.1823 13.1411 14.076 12.93C13.9712 12.7189 13.1297 10.6463 12.7783 9.80339C12.4369 8.98314 12.0898 9.09506 11.832 9.08089C11.5855 9.06956 11.305 9.06672 11.0245 9.06672C10.744 9.06672 10.2878 9.17156 9.9025 9.59372C9.51575 10.0145 8.42917 11.0331 8.42917 13.1056C8.42917 15.1768 9.9365 17.1786 10.1476 17.4605C10.3587 17.741 13.1155 21.9938 17.3386 23.8171C18.3444 24.2506 19.1278 24.5098 19.7384 24.7025C20.7471 25.0241 21.6651 24.9787 22.3904 24.8696C23.1979 24.7492 24.8809 23.8511 25.2323 22.8679C25.5822 21.8847 25.5822 21.0418 25.4773 20.8661C25.3725 20.6905 25.092 20.5856 24.6698 20.3746H24.6713ZM16.9901 30.8621H16.9844C14.4761 30.8626 12.0139 30.1883 9.85575 28.91L9.34575 28.6068L4.04458 29.998L5.45983 24.83L5.12692 24.3001C3.72461 22.068 2.9825 19.4846 2.98633 16.8485C2.98917 9.12764 9.27067 2.84614 16.9958 2.84614C20.7358 2.84614 24.2519 4.30531 26.8954 6.95164C28.1993 8.25013 29.2327 9.79428 29.936 11.4947C30.6392 13.1952 30.9983 15.0183 30.9924 16.8584C30.9896 24.5792 24.7081 30.8621 16.9901 30.8621ZM28.9071 4.94139C27.3462 3.3702 25.489 2.1244 23.4431 1.27619C21.3973 0.427982 19.2034 -0.00577468 16.9887 5.80515e-05C7.70383 5.80515e-05 0.1445 7.55797 0.141667 16.8471C0.14025 19.8164 0.915167 22.7149 2.38992 25.2691L0 34.0001L8.93067 31.6569C11.4012 33.0029 14.1696 33.7082 16.983 33.7082H16.9901C26.2749 33.7082 33.8343 26.1503 33.8371 16.8598C33.8439 14.6459 33.4117 12.4527 32.5655 10.4069C31.7193 8.36118 30.4758 6.50351 28.9071 4.94139Z" fill="#E28D40"/>
</g>
<defs>
<clipPath id="clip0">
<rect width="34" height="34" fill="white"/>
</clipPath>
</defs>
</svg>
