<svg width="611" height="214" viewBox="0 0 611 214" fill="none" xmlns="http://www.w3.org/2000/svg">
<path d="M40.0162 1.34237e-07H67.5083V26.6812C67.5078 31.7656 66.4757 36.8002 64.4708 41.4974C62.466 46.1945 59.5277 50.4622 55.8237 54.0567C52.1198 57.6512 47.7227 60.5021 42.8837 62.4466C38.0447 64.3911 32.8586 65.391 27.6215 65.3893H0.139404V38.7082C0.13984 33.6245 1.17163 28.5907 3.17586 23.8942C5.18009 19.1977 8.11752 14.9304 11.8204 11.336C15.5233 7.74164 19.9192 4.89053 24.757 2.9455C29.5949 1.00046 34.7799 -0.000423204 40.0162 1.34237e-07Z" fill="white"/>
<path d="M272.849 148.216H300.649V174.896C300.649 185.16 296.401 195.005 288.839 202.264C281.277 209.523 271.02 213.602 260.324 213.605H232.523V186.925C232.523 176.66 236.772 166.816 244.334 159.557C251.896 152.298 262.153 148.218 272.849 148.216Z" fill="white"/>
<path d="M145.474 0H77.3479V65.3893H145.474V0Z" fill="#1E3E74"/>
<path d="M145.474 148.216H77.3479V213.605H145.474V148.216Z" fill="#1E3E74"/>
<path d="M67.5075 74.8345H0.138672V139.497H67.5075V74.8345Z" fill="#06A4DE"/>
<path d="M0 73.8924H65.5886C65.589 82.1595 63.8929 90.3457 60.5972 97.9836C57.3014 105.622 52.4705 112.562 46.3803 118.407C40.2901 124.253 33.0599 128.89 25.1025 132.054C17.1451 135.218 8.6164 136.846 0.0033423 136.846V73.8924H0Z" fill="#1E3E74"/>
<path d="M0 104.767V73.8853H32.174C32.174 82.0756 28.7842 89.9304 22.7504 95.7218C16.7166 101.513 8.53306 104.767 0 104.767Z" fill="#E28D40"/>
<path d="M65.5886 73.8924H0V73.9149H65.5886V73.8924Z" fill="#FCFDFF"/>
<path d="M223.44 148.216H156.071V213.605H223.44V148.216Z" fill="#06A4DE"/>
<path d="M155.714 147.907H221.299C221.296 164.601 214.385 180.611 202.086 192.414C189.787 204.218 173.106 210.849 155.714 210.849V147.907Z" fill="#1E3E74"/>
<path d="M155.71 178.782V147.897H187.887C187.887 156.088 184.497 163.944 178.463 169.736C172.428 175.528 164.244 178.782 155.71 178.782Z" fill="#E28D40"/>
<path d="M221.305 147.897H155.717V147.92H221.305V147.897Z" fill="#FCFDFF"/>
<path d="M145.474 74.8345H77.3479V139.497H145.474V74.8345Z" fill="#1E3E74"/>
<path d="M133.672 117.548C133.672 105.371 123.388 95.5002 110.701 95.5002C98.0146 95.5002 87.7302 105.371 87.7302 117.548C87.7302 129.725 98.0146 139.597 110.701 139.597C123.388 139.597 133.672 129.725 133.672 117.548Z" fill="white"/>
<path d="M110.701 127.377C109.357 127.377 108.025 127.123 106.783 126.63C105.541 126.136 104.412 125.413 103.461 124.5C102.51 123.588 101.756 122.505 101.241 121.312C100.726 120.12 100.461 118.842 100.461 117.552C100.461 114.945 101.54 112.445 103.461 110.602C105.381 108.759 107.985 107.723 110.701 107.723C113.417 107.723 116.021 108.759 117.942 110.602C119.862 112.445 120.941 114.945 120.941 117.552C120.941 118.842 120.676 120.12 120.161 121.312C119.647 122.505 118.892 123.588 117.942 124.5C116.991 125.413 115.862 126.136 114.62 126.63C113.377 127.123 112.046 127.377 110.701 127.377Z" fill="#17A4DE"/>
<path d="M145.389 95.6385V139.807H110.422C116.195 139.807 121.733 137.48 125.815 133.339C129.898 129.197 132.192 123.58 132.192 117.723C132.192 111.866 129.898 106.249 125.815 102.107C121.733 97.9653 116.195 95.6385 110.422 95.6385H145.389Z" fill="#E28D40"/>
<path d="M195.952 0H223.44V26.6812C223.44 31.7648 222.408 36.7986 220.403 41.4951C218.398 46.1916 215.46 50.4589 211.757 54.0533C208.053 57.6477 203.656 60.4988 198.818 62.4438C193.979 64.3889 188.793 65.3897 183.555 65.3893H156.071V38.7082C156.072 28.4418 160.274 18.5963 167.753 11.3372C175.232 4.07807 185.376 -3.55936e-08 195.952 0Z" fill="#1C3F75"/>
<path d="M300.649 0H232.523V65.3893H300.649V0Z" fill="#1E3E74"/>
<path d="M223.44 74.8345H156.071V139.497H223.44V74.8345Z" fill="#06A4DE"/>
<path fill-rule="evenodd" clip-rule="evenodd" d="M189.629 118.409C186.835 118.415 184.119 119.298 181.896 120.925C179.674 122.551 178.066 124.83 177.32 127.415C174.534 140.399 158.927 127.325 158.927 110.894C158.884 106.997 159.648 103.13 161.172 99.518C162.697 95.9056 164.952 92.6192 167.809 89.8489C170.665 87.0786 174.065 84.8793 177.813 83.3784C181.56 81.8775 185.58 81.1047 189.641 81.1047C193.702 81.1047 197.722 81.8775 201.47 83.3784C205.217 84.8793 208.617 87.0786 211.474 89.8489C214.33 92.6192 216.585 95.9056 218.11 99.518C219.635 103.13 220.398 106.997 220.355 110.894C220.355 127.325 204.738 140.399 201.963 127.415C201.217 124.83 199.61 122.55 197.387 120.923C195.164 119.297 192.448 118.414 189.653 118.409" fill="white"/>
<path d="M300.649 74.8345H232.523V139.497H300.649V74.8345Z" fill="#E28D40"/>
<path d="M189.756 42.8663C195.817 42.8663 200.731 38.3123 200.731 32.6946C200.731 27.077 195.817 22.5229 189.756 22.5229C183.694 22.5229 178.78 27.077 178.78 32.6946C178.78 38.3123 183.694 42.8663 189.756 42.8663Z" fill="#E28D40"/>
<path d="M40.0155 148.216H67.5075V174.896C67.5075 179.98 66.4757 185.015 64.4711 189.712C62.4664 194.409 59.5282 198.677 55.8242 202.272C52.1202 205.867 47.723 208.718 42.8838 210.662C38.0446 212.607 32.8582 213.607 27.6208 213.605H0.138672V186.925C0.138672 181.841 1.17014 176.808 3.17417 172.111C5.17821 167.414 8.11557 163.147 11.8185 159.552C15.5215 155.958 19.9175 153.106 24.7555 151.161C29.5936 149.216 34.7789 148.215 40.0155 148.216Z" fill="#1C3F75"/>
<path d="M33.8232 191.082C39.885 191.082 44.7991 186.528 44.7991 180.91C44.7991 175.293 39.885 170.739 33.8232 170.739C27.7615 170.739 22.8474 175.293 22.8474 180.91C22.8474 186.528 27.7615 191.082 33.8232 191.082Z" fill="#E28D40"/>
<path d="M350.372 1.3423e-07H377.858V26.6799C377.858 36.9462 373.657 46.7922 366.178 54.0516C358.699 61.311 348.556 65.3893 337.979 65.3893H310.49V38.7063C310.49 33.6229 311.522 28.5893 313.527 23.893C315.531 19.1967 318.469 14.9297 322.172 11.3355C325.876 7.74126 330.272 4.89029 335.111 2.94535C339.949 1.00041 345.135 -0.000423183 350.372 1.3423e-07Z" fill="white"/>
<path d="M583.204 148.216H611V174.896C611 185.162 606.751 195.008 599.188 202.267C591.625 209.527 581.367 213.605 570.671 213.605H542.874V186.925C542.874 176.659 547.123 166.813 554.686 159.553C562.25 152.294 572.508 148.216 583.204 148.216Z" fill="white"/>
<path d="M455.825 0H387.699V65.3893H455.825V0Z" fill="#1E3E74"/>
<path d="M455.825 148.216H387.699V213.605H455.825V148.216Z" fill="#1E3E74"/>
<path d="M377.858 74.8345H310.49V139.497H377.858V74.8345Z" fill="#06A4DE"/>
<path d="M310.303 73.8924H375.891C375.892 82.1598 374.195 90.3462 370.899 97.9844C367.603 105.622 362.772 112.563 356.682 118.409C350.591 124.254 343.361 128.892 335.403 132.055C327.445 135.219 318.916 136.847 310.303 136.846V73.8924Z" fill="#1E3E74"/>
<path d="M310.303 104.767V73.8853H342.477C342.476 82.0753 339.086 89.9297 333.052 95.7209C327.018 101.512 318.835 104.766 310.303 104.767Z" fill="#E28D40"/>
<path d="M375.898 73.8918H310.31V73.9143H375.898V73.8918Z" fill="#FCFDFF"/>
<path d="M533.791 148.216H465.665V213.605H533.791V148.216Z" fill="#06A4DE"/>
<path d="M466.016 147.907H531.604C531.604 164.603 524.694 180.615 512.395 192.42C500.095 204.226 483.413 210.858 466.019 210.858V147.907H466.016Z" fill="#1E3E74"/>
<path d="M466.016 178.782V147.897H498.19C498.19 156.088 494.8 163.943 488.766 169.735C482.733 175.527 474.549 178.781 466.016 178.782Z" fill="#E28D40"/>
<path d="M531.604 147.897H466.016V147.92H531.604V147.897Z" fill="#FCFDFF"/>
<path d="M455.825 74.8345H387.699V139.497H455.825V74.8345Z" fill="#1E3E74"/>
<path d="M443.978 117.548C443.978 105.371 433.693 95.5002 421.007 95.5002C408.32 95.5002 398.036 105.371 398.036 117.548C398.036 129.725 408.32 139.597 421.007 139.597C433.693 139.597 443.978 129.725 443.978 117.548Z" fill="white"/>
<path d="M421.003 127.377C419.659 127.377 418.327 127.123 417.085 126.63C415.843 126.136 414.714 125.413 413.763 124.5C412.812 123.588 412.058 122.505 411.543 121.312C411.029 120.12 410.764 118.842 410.764 117.552C410.764 114.945 411.842 112.445 413.763 110.602C415.683 108.759 418.288 107.723 421.003 107.723C423.719 107.723 426.324 108.759 428.244 110.602C430.164 112.445 431.243 114.945 431.243 117.552C431.243 118.842 430.978 120.12 430.464 121.312C429.949 122.505 429.195 123.588 428.244 124.5C427.293 125.413 426.164 126.136 424.922 126.63C423.679 127.123 422.348 127.377 421.003 127.377Z" fill="#17A4DE"/>
<path d="M455.489 95.6385V139.807H421.443C427.065 139.807 432.456 137.48 436.431 133.339C440.407 129.197 442.64 123.58 442.64 117.723C442.64 111.866 440.407 106.249 436.431 102.107C432.456 97.9653 427.065 95.6385 421.443 95.6385H455.489Z" fill="#E28D40"/>
<path d="M505.994 0H533.791V26.6812C533.79 36.9475 529.541 46.7931 521.977 54.0522C514.414 61.3113 504.157 65.3893 493.461 65.3893H465.665V38.7082C465.666 28.4418 469.915 18.5963 477.478 11.3372C485.042 4.07807 495.299 -3.55936e-08 505.994 0Z" fill="#1C3F75"/>
<path d="M611 0H542.874V65.3893H611V0Z" fill="#1E3E74"/>
<path d="M533.791 74.8345H465.665V139.497H533.791V74.8345Z" fill="#06A4DE"/>
<path fill-rule="evenodd" clip-rule="evenodd" d="M499.935 118.409C497.14 118.414 494.424 119.297 492.201 120.923C489.978 122.55 488.371 124.83 487.626 127.415C484.84 140.399 469.233 127.325 469.233 110.894C469.191 106.997 469.954 103.13 471.478 99.518C473.003 95.9056 475.258 92.6192 478.115 89.8489C480.971 87.0786 484.371 84.8793 488.119 83.3784C491.866 81.8775 495.886 81.1047 499.947 81.1047C504.008 81.1047 508.028 81.8775 511.776 83.3784C515.523 84.8793 518.923 87.0786 521.78 89.8489C524.636 92.6192 526.891 95.9056 528.416 99.518C529.941 103.13 530.704 106.997 530.661 110.894C530.661 127.325 515.044 140.399 512.269 127.415C511.522 124.83 509.915 122.551 507.692 120.925C505.469 119.298 502.754 118.415 499.959 118.409" fill="white"/>
<path d="M611 74.8345H542.874V139.497H611V74.8345Z" fill="#E28D40"/>
<path d="M499.728 42.8663C505.581 42.8663 510.325 38.3123 510.325 32.6946C510.325 27.077 505.581 22.5229 499.728 22.5229C493.875 22.5229 489.131 27.077 489.131 32.6946C489.131 38.3123 493.875 42.8663 499.728 42.8663Z" fill="#E28D40"/>
<path d="M350.372 148.216H377.858V174.896C377.858 185.162 373.657 195.008 366.178 202.267C358.699 209.527 348.556 213.605 337.979 213.605H310.49V186.925C310.49 181.841 311.521 176.808 313.526 172.111C315.53 167.414 318.468 163.147 322.171 159.552C325.875 155.958 330.271 153.106 335.11 151.161C339.949 149.216 345.135 148.215 350.372 148.216Z" fill="#1C3F75"/>
<path d="M344.174 191.082C350.236 191.082 355.15 186.528 355.15 180.91C355.15 175.293 350.236 170.739 344.174 170.739C338.112 170.739 333.198 175.293 333.198 180.91C333.198 186.528 338.112 191.082 344.174 191.082Z" fill="#E28D40"/>
</svg>
