<svg id="Layer_1" data-name="Layer 1" xmlns="http://www.w3.org/2000/svg" viewBox="0 0 969.92 160.87"><defs><style>.cls-1,.cls-3{fill:#00a6e0;}.cls-1{fill-rule:evenodd;}.cls-2{fill:#fff;}</style></defs><path class="cls-1" d="M94.26,118.31a36,36,0,0,0-34.57,26.37h0C51.86,182.66,8,144.41,8,96.33a86.26,86.26,0,1,1,172.52,0c0,48.08-43.86,86.33-51.68,48.34h0a36,36,0,0,0-34.57-26.37" transform="translate(-8 -10)"/><path class="cls-2" d="M238.54,87.59c0,.2,0,.39.05.59a30.19,30.19,0,1,0-.16-3.12c0,.85,0,1.7.11,2.53m30-51.55a49,49,0,1,1-30,87.8v22.47a9.43,9.43,0,1,1-18.85,0v-57c-.12-1.39-.18-2.79-.18-4.21a49,49,0,0,1,49-49Z" transform="translate(-8 -10)"/><path class="cls-2" d="M513.61,81.68a5.42,5.42,0,0,1-.06-.58,30.19,30.19,0,1,0,.16,3.12c0-.86,0-1.7-.1-2.54m-30.05,51.55a49,49,0,1,1,30-87.79V22.26a9.43,9.43,0,1,1,18.86,0V80c.12,1.39.18,2.79.18,4.21a49,49,0,0,1-49,49Z" transform="translate(-8 -10)"/><path class="cls-2" d="M700.33,115.57a9.43,9.43,0,0,1,0,18.86,37.59,37.59,0,0,1-37.5-37.5V22.26a9.43,9.43,0,0,1,18.86,0V96.93a18.71,18.71,0,0,0,18.64,18.64" transform="translate(-8 -10)"/><path class="cls-3" d="M754,170.87A9.43,9.43,0,0,1,754,152a17.45,17.45,0,0,0,17.37-17.37v-1.49a49.7,49.7,0,0,1-9.51.92,49,49,0,1,1,28.37-9v9.62A36.33,36.33,0,0,1,754,170.87m7.86-116a30.15,30.15,0,1,0,21.32,8.83A30.1,30.1,0,0,0,761.85,54.9Z" transform="translate(-8 -10)"/><path class="cls-2" d="M401.77,107.24a9.41,9.41,0,1,1,12.67,13.92,49.19,49.19,0,0,1-6.27,4.84,49,49,0,1,1,8.69-74.89c9.23,9.71,1.48,26.87-6.47,34.83a36.11,36.11,0,0,1-25.6,10.6v0H371.68a9.39,9.39,0,1,1,0-18.78h13.11v0A17.55,17.55,0,0,0,402,62.85a30.1,30.1,0,1,0-4.05,47.38,29.76,29.76,0,0,0,3.84-3" transform="translate(-8 -10)"/><path class="cls-2" d="M584.49,55.93A9.41,9.41,0,1,1,577,38.66a49.72,49.72,0,0,1,7.5-2.55,49,49,0,1,1-32.41,68.06C546.48,92,559.36,78.26,569.46,73.3a36.14,36.14,0,0,1,27.65-1.76v0l12.41,4.24a9.39,9.39,0,1,1-6.07,17.78L591,89.32v0A17.52,17.52,0,0,0,570,97.88a30.18,30.18,0,1,0,23.95-44.34,29.18,29.18,0,0,0-9.42,2.39" transform="translate(-8 -10)"/><path class="cls-3" d="M968.49,115.57a9.43,9.43,0,0,1,0,18.86A37.59,37.59,0,0,1,931,96.93V22.26a9.43,9.43,0,0,1,18.86,0V96.93a18.71,18.71,0,0,0,18.64,18.64" transform="translate(-8 -10)"/><path class="cls-3" d="M895.56,107.24a9.41,9.41,0,0,1,12.67,13.92,49,49,0,1,1,2.41-70c9.24,9.71,1.49,26.87-6.47,34.83a36.11,36.11,0,0,1-25.6,10.6v0H865.46a9.39,9.39,0,1,1,0-18.78h13.11v0a17.53,17.53,0,0,0,17.19-14.91,30.19,30.19,0,1,0-8.34,49.69,29.33,29.33,0,0,0,8.14-5.3" transform="translate(-8 -10)"/></svg>