<svg width="20" height="20" viewBox="0 0 20 20" fill="none" xmlns="http://www.w3.org/2000/svg"><g clip-path="url(#clip0)"><path d="M16.4195 14.6057C17.2684 14.2339 17.9635 13.5814 18.3883 12.7578C18.813 11.9341 18.9415 10.9894 18.7521 10.0822C18.5627 9.17507 18.067 8.36067 17.3482 7.77574C16.6294 7.1908 15.7312 6.87094 14.8045 6.86985H13.7871C13.5311 5.87866 13.0432 4.9625 12.3637 4.19687C11.6842 3.43124 10.8324 2.83807 9.87859 2.46625C8.92479 2.09443 7.89629 1.95461 6.87785 2.05832C5.85941 2.16202 4.8802 2.50628 4.02092 3.06272C3.16165 3.61916 2.44692 4.37184 1.93564 5.25873C1.42437 6.14561 1.13118 7.14131 1.08026 8.16375C1.02934 9.18619 1.22214 10.2061 1.64276 11.1394C2.06339 12.0727 2.69979 12.8927 3.49952 13.5317" stroke-width="1.615" stroke-linecap="round" stroke-linejoin="round"></path><path d="M6.73047 13.3298H6.7387" stroke-width="1.615" stroke-linecap="round" stroke-linejoin="round"></path><path d="M6.73047 16.5599H6.7387" stroke-width="1.615" stroke-linecap="round" stroke-linejoin="round"></path><path d="M9.95996 14.9448H9.96819" stroke-width="1.615" stroke-linecap="round" stroke-linejoin="round"></path><path d="M9.95996 18.1749H9.96819" stroke-width="1.615" stroke-linecap="round" stroke-linejoin="round"></path><path d="M13.1904 13.3298H13.1987" stroke-width="1.615" stroke-linecap="round" stroke-linejoin="round"></path><path d="M13.1904 16.5599H13.1987" stroke-width="1.615" stroke-linecap="round" stroke-linejoin="round"></path></g><defs><clipPath id="clip0"><rect width="19.38" height="19.38" fill="#484848" transform="translate(0.269531 0.409851)"></rect></clipPath></defs></svg>