<svg width="20" height="20" viewBox="0 0 20 20" fill="none" xmlns="http://www.w3.org/2000/svg"><g clip-path="url(#clip0)"><path d="M13.2773 10.5224V16.9824" stroke-width="1.615" stroke-linecap="round" stroke-linejoin="round"></path><path d="M6.81738 10.5224V16.9824" stroke-width="1.615" stroke-linecap="round" stroke-linejoin="round"></path><path d="M10.0479 12.1374V18.5974" stroke-width="1.615" stroke-linecap="round" stroke-linejoin="round"></path><path d="M16.5074 13.4133C17.3563 13.0415 18.0514 12.389 18.4762 11.5653C18.9009 10.7417 19.0293 9.79696 18.84 8.88979C18.6506 7.98263 18.1549 7.16823 17.4361 6.58329C16.7173 5.99836 15.8191 5.6785 14.8924 5.67741H13.875C13.619 4.68622 13.1311 3.77005 12.4516 3.00442C11.772 2.23879 10.9203 1.64562 9.96648 1.27381C9.01268 0.90199 7.98418 0.762171 6.96574 0.865876C5.9473 0.969581 4.96809 1.31384 4.10881 1.87028C3.24954 2.42671 2.53481 3.1794 2.02353 4.06628C1.51226 4.95317 1.21908 5.94887 1.16815 6.97131C1.11723 7.99375 1.31003 9.01365 1.73065 9.94695C2.15128 10.8802 2.78768 11.7002 3.58741 12.3393" stroke-width="1.615" stroke-linecap="round" stroke-linejoin="round"></path></g><defs><clipPath id="clip0"><rect width="19.38" height="19.38" fill="white" transform="translate(0.357422 0.0249023)"></rect></clipPath></defs></svg>