<svg width="38" height="38" viewBox="0 0 38 38" fill="none" xmlns="http://www.w3.org/2000/svg">
<path d="M19 20.583C21.6234 20.583 23.75 18.4564 23.75 15.833C23.75 13.2097 21.6234 11.083 19 11.083C16.3766 11.083 14.25 13.2097 14.25 15.833C14.25 18.4564 16.3766 20.583 19 20.583Z" stroke="#E28D40" stroke-width="2.5" stroke-linecap="round" stroke-linejoin="round"/>
<path d="M19 3.1665C15.6406 3.1665 12.4188 4.50102 10.0434 6.87649C7.66789 9.25195 6.33337 12.4738 6.33337 15.8332C6.33337 18.8288 6.96987 20.789 8.70837 22.9582L19 34.8332L29.2917 22.9582C31.0302 20.789 31.6667 18.8288 31.6667 15.8332C31.6667 12.4738 30.3322 9.25195 27.9567 6.87649C25.5813 4.50102 22.3594 3.1665 19 3.1665V3.1665Z" stroke="#E28D40" stroke-width="2.5" stroke-linecap="round" stroke-linejoin="round"/>
</svg>
